<svg width="200" height="60" viewBox="0 0 200 60" fill="none" xmlns="http://www.w3.org/2000/svg">
  <path d="M48.5 45V15H42.5L35 35L27.5 15H21.5V45H27.5V23.5L35 43.5L42.5 23.5V45H48.5ZM65 45C69.5 45 72.5 41.5 72.5 37.5C72.5 35 71 33 68.5 32C70.5 31 72 29.5 72 27C72 23.5 69 20.5 65 20.5H54.5V45H65ZM60.5 25.5H64.5C66.5 25.5 67.5 26.5 67.5 28C67.5 29.5 66.5 30.5 64.5 30.5H60.5V25.5ZM60.5 35H65C67 35 68 36 68 38C68 40 67 41 65 41H60.5V35ZM95 45L99.5 20.5H93L90.5 38.5L87.5 20.5H82.5L79.5 38.5L77 20.5H70.5L75 45H81L85 27L89 45H95ZM116 45L118.5 35H104.5L107 45H116ZM111.5 20.5L106 31H117L111.5 20.5ZM130 31L124 20.5H117.5L126.5 35V45H132.5V35L141.5 20.5H135L130 31Z" fill="#000"/>
</svg>